<svg xmlns="http://www.w3.org/2000/svg" width="129" height="45" fill="none" xmlns:v="https://vecta.io/nano"><path d="M92.975 22.865v-.591L92.951.905c0-.566.169-.689.676-.665a16.36 16.36 0 0 0 2.197 0c.434-.025.555.148.507.542-.024.369 0 .739 0 1.083v26.072c0 .492-.121.665-.604.64-.821-.049-1.642-.025-2.463 0-.386.025-.604-.123-.845-.443l-9.512-12.901-6.808-9.208c-.073-.098-.145-.197-.242-.295-.169.148-.097.345-.097.517v21.714c0 .542-.145.665-.652.64-.773-.049-1.545-.025-2.294 0-.41.025-.507-.099-.507-.517v-9.872V.88c0-.443.072-.64.579-.615.869.049 1.738.025 2.632 0 .29 0 .483.098.676.345l15.5 20.779 1.159 1.551c.048-.025.072-.049.121-.074z" fill="#455058"/><path d="M19.435 14.421c0-2.61.314-5.17 1.376-7.607 1.449-3.25 3.935-5.219 7.267-6.106 3.525-.936 7.074-.96 10.575.025 3.815 1.059 6.374 3.57 7.581 7.435.917 3.004 1.038 6.056.7 9.158-.241 2.142-.773 4.161-1.859 6.007-1.473 2.487-3.67 4.013-6.398 4.752-3.935 1.034-7.871 1.034-11.734-.345-3.573-1.28-5.746-3.89-6.76-7.558-.169-.616-.314-1.256-.435-1.92-.266-1.256-.338-2.56-.314-3.841zM40.44 5.41c-.024-.074-.072-.123-.145-.123-.024 0-.048-.025-.072-.049 0-.123-.097-.172-.193-.197-.604-.369-1.159-.837-1.835-1.108-2.776-1.157-5.625-1.182-8.498-.468-2.897.739-4.853 2.634-5.746 5.539-1.111 3.57-1.086 7.214.024 10.783.821 2.634 2.559 4.481 5.167 5.392 2.028.689 4.104.763 6.181.492 3.622-.492 6.205-2.413 7.195-6.056 1.183-4.382 1.207-8.765-1.038-12.901.024-.345-.29-.566-.338-.862-.097-.394-.338-.394-.628-.369l-.072-.074z" fill="#0694d1"/><path d="M50.605 14.372V.831c0-.443.072-.615.579-.615h17.069c.434 0 .603.098.555.566-.048.64-.024 1.305 0 1.97.024.369-.097.468-.459.443-2.1-.025-4.201 0-6.301 0h-7.34c-.41 0-.555.098-.531.542v8.445c0 .418.097.517.507.517l11.178-.025c.435 0 .579.098.555.566-.048.64-.048 1.305 0 1.97.024.418-.121.517-.507.492-3.718-.025-7.412 0-11.13-.025-.507 0-.604.148-.604.64v8.666c0 .492.145.591.604.591l13.424-.025c.459 0 .676.074.628.615-.048.64-.024 1.28 0 1.896.024.394-.121.492-.483.468-2.68-.025-5.36 0-8.015 0h-9.199c-.41 0-.507-.098-.507-.517l-.024-13.639z" fill="#475159"/><path d="M128.949 21.61v5.466c0 .271-.024.443-.314.517-4.828 1.6-9.681 1.674-14.461-.123-3.622-1.354-5.843-4.111-6.833-7.878-.917-3.521-.99-7.09-.096-10.611 1.086-4.333 3.838-7.041 8.039-8.174 4.443-1.206 8.885-.96 13.303.295.314.098.362.246.362.542a33.35 33.35 0 0 0 0 2.191c.024.443-.048.566-.507.394-2.414-.886-4.925-1.256-7.508-1.182-1.521.049-3.018.246-4.467.714-3.018 1.009-4.973 3.077-5.746 6.204-.772 3.028-.7 6.106.193 9.109 1.038 3.545 3.453 5.638 6.954 6.401 2.341.517 4.683.443 7.001 0 .362-.074.507-.222.507-.64l-.024-8.568c0-.443.121-.542.531-.542a46.94 46.94 0 0 0 2.632 0c.362 0 .434.123.434.468v5.416z" fill="#465058"/><path d="M21.777 28.577h-4.322c-.29 0-.41-.246-.604-.419l-9.561-9.749-2.583-2.61c-.241-.246-.314-.517-.362-.862-.169-1.157.338-1.92 1.135-2.708L16.973.56c.145-.148.29-.295.531-.295h4.273c-.145.369-.459.591-.7.837L8.378 14.027c-.314.32-.314.492 0 .813l12.844 13.073.579.542c.024.025 0 .074-.024.123z" fill="#0893d1"/><path d="M0 14.446V.806C0 .339.121.215.555.24h2.559c.41-.025.507.098.507.517V15.8v12.211c0 .468-.121.591-.555.566a44.38 44.38 0 0 0-2.559 0c-.41.025-.507-.123-.507-.517V14.446z" fill="#475159"/><path d="M103.477 14.47v13.59c0 .419-.096.566-.531.542-.869-.025-1.738-.025-2.631 0-.314 0-.483-.049-.459-.443V.732c0-.345.072-.468.434-.468a48.63 48.63 0 0 0 2.68 0c.411-.025.507.123.507.517V14.47z" fill="#48525a"/><path d="M105.482 39.287l-.7 2.24a8.47 8.47 0 0 0-.242.837c-.072.296-.193.443-.531.443-.386 0-.435-.222-.507-.492l-1.135-3.865c-.048-.123-.265-.394.049-.419.217-.025.579-.197.676.271l.724 2.684c.072.246.096.492.29.788l.748-2.413.266-.935c.072-.246.169-.394.458-.394.314 0 .387.148.459.394l.942 3.521.676-2.487c.096-.345.217-.689.265-1.059.048-.345.266-.369.531-.369.242 0 .314.074.218.32l-1.232 4.161c-.096.345-.314.271-.531.296-.265.025-.386-.099-.434-.345l-.894-3.176h-.096z" fill="#4f575c"/><path d="M128.176 42.093c-.628.739-1.328.985-2.197.714-.024 0-.024 0-.048-.025-1.087-.369-1.594-1.846-1.135-3.324.362-1.182 1.376-1.797 2.487-1.502.362.098.627.295.941.689v-2.536c0-.295.073-.418.387-.418.338 0 .362.148.362.418v6.056c0 .246.169.591-.338.615-.58.049-.387-.345-.459-.689zm.024-1.748c0-.172.024-.369 0-.542-.048-.615-.483-1.108-1.038-1.231a1.37 1.37 0 0 0-1.497.689c-.338.714-.386 1.453-.048 2.216a1.15 1.15 0 0 0 1.062.763c.531.025.942-.148 1.231-.591.266-.394.338-.837.29-1.305z" fill="#4d555c"/><path d="M71.054 42.142v2.363c0 .271.024.468-.362.492-.434.025-.386-.222-.386-.517v-5.933c0-.271-.097-.542.362-.542.435 0 .41.221.386.517a1.29 1.29 0 0 0 .024.246c.338-.394.676-.714 1.135-.812 1.038-.222 1.956.296 2.245 1.33.193.689.169 1.403-.024 2.093-.483 1.699-2.463 1.97-3.38.763zm0-1.723v.443c.024.739.483 1.305 1.111 1.379.676.098 1.231-.271 1.497-.96.193-.566.241-1.133.072-1.723-.145-.542-.459-.911-1.014-1.009-.58-.099-1.038.099-1.4.591-.266.443-.29.886-.266 1.28z" fill="#4d555b"/><path d="M112.266 39.065c-.169-.542-.024-.862.507-.985.338-.098.7-.172 1.038-.172 1.038.025 1.593.542 1.642 1.6l.024 2.88c0 .32-.097.394-.386.394-.314 0-.411-.123-.363-.419v-.172c-.217 0-.265.222-.386.32a1.79 1.79 0 0 1-1.907.172c-.435-.246-.7-.812-.652-1.354.072-.714.459-1.157 1.231-1.329.459-.099.918-.172 1.376-.222.338-.049.387-.172.314-.492-.12-.542-.434-.763-.941-.763-.58.025-1.038.271-1.497.542zm1.038 3.201c.942 0 1.569-.812 1.424-1.65-.024-.172-.096-.221-.241-.197l-1.304.222c-.507.123-.7.468-.603.985.072.468.434.616.724.64z" fill="#4e565c"/><path d="M66.298 41.822c.193.591-.121.812-.579.935-1.207.369-2.318.049-2.825-.886-.603-1.133-.338-2.782.58-3.545.652-.517 1.642-.591 2.318-.148.604.394 1.038 1.477.869 2.216-.048.246-.217.197-.362.197h-2.511c-.434-.025-.459.148-.362.492.217.886.942 1.305 1.907 1.108.338-.049.652-.246.966-.369zm-1.69-1.871h.966c.29.025.386-.074.314-.369-.145-.615-.507-.985-1.062-1.034-.604-.025-1.159.394-1.352 1.009-.097.295-.024.419.29.394.29-.025.555 0 .845 0zm23.876.468c0-1.773 1.304-2.831 2.97-2.437 1.183.271 1.835 1.477 1.593 2.905-.217 1.354-1.207 2.142-2.535 2.019-1.255-.123-2.028-1.059-2.028-2.487zm.773.025c0 .32.072.64.193.96.266.591.821.886 1.521.837a1.34 1.34 0 0 0 1.231-1.034c.145-.542.169-1.083 0-1.6-.193-.689-.724-1.059-1.424-1.059-.942.025-1.545.763-1.521 1.896z" fill="#4d555c"/><path d="M53.478 38.868c-.459-.197-.869-.369-1.328-.295-.362.049-.676.172-.748.591-.072.394.193.591.507.739l1.111.517c.459.246.724.64.7 1.182-.048.542-.338.911-.821 1.108-.652.271-1.328.271-1.98.049-.483-.148-.217-.517-.314-.862.507.172.966.419 1.473.369.362-.049.724-.074.845-.517.121-.468-.217-.689-.555-.862l-1.014-.468c-.459-.246-.724-.615-.7-1.182a1.18 1.18 0 0 1 .748-1.083c.579-.295 1.207-.295 1.835-.123.29.099.29.099.241.837z" fill="#4f575c"/><path d="M83.68 40.715V39.09c0-.295-.073-.443-.386-.418-.242.025-.459.049-.459-.345 0-.345.217-.345.434-.295.338.049.411-.123.411-.443-.024-.295-.024-.616.072-.911.217-.689.869-1.108 1.569-1.034.314.025.435.148.41.492-.024.394-.241.197-.41.172-.507-.025-.797.222-.869.739-.024.172 0 .32-.024.492-.072.418.097.566.507.492.097-.025.169 0 .266 0 .266-.025.314.098.338.345 0 .246-.097.296-.314.296-.772.049-.772.049-.772.862v2.831c0 .295-.048.419-.386.419-.314 0-.386-.099-.386-.394v-1.674z" fill="#4d555c"/><path d="M59.465 42.192c.169.517-.097.689-.531.714-.821.049-1.328-.394-1.352-1.256V39.09c0-.32-.072-.492-.41-.443-.242.025-.41.025-.41-.32 0-.32.169-.369.41-.32.338.049.459-.099.41-.419-.024-.172 0-.32 0-.492 0-.418.338-.369.579-.418.314-.049.145.246.169.394.024.074 0 .148 0 .222 0 .714 0 .714.7.714.241 0 .507-.074.483.369-.024.418-.29.271-.483.295-.7.025-.7.025-.7.739v1.797c0 .96.217 1.133 1.135.985z" fill="#4d555b"/><path d="M120.185 38.745c.386-.591.845-.96 1.473-.739.29.098.096.468.121.739-.99-.197-1.521.197-1.618 1.206-.072.812-.048 1.625-.048 2.437 0 .271-.024.443-.362.443s-.411-.099-.411-.443v-3.865c0-.271-.024-.492.362-.492.411-.025.435.197.411.492 0 .025.024.074.072.221z" fill="#51595f"/><path d="M97.538 38.893c.241-.443.459-.739.797-.886.676-.271.917-.049.821.689-.99-.172-1.545.246-1.618 1.305-.048.788-.024 1.551-.024 2.339 0 .271-.024.443-.362.419-.338 0-.41-.123-.41-.443v-3.816c0-.32-.024-.542.41-.542.483 0 .314.32.338.566.024.098.024.148.048.369z" fill="#4f575c"/><g fill="#0893d1"><path d="M41.503 6.715l-.99-1.231c.29-.025.531-.049.628.369.097.295.386.517.362.862zm-1.256-1.477c-.097-.025-.169-.074-.193-.197.097.025.169.074.193.197z"/><path d="M40.44 5.41c-.048-.049-.097-.098-.145-.123.073 0 .121.049.145.123z"/></g></svg>