<svg width="28" height="28" viewBox="0 0 28 28" fill="none" xmlns="http://www.w3.org/2000/svg">
<path d="M25.375 5.25H17.5C16.8208 5.25 16.1509 5.40813 15.5434 5.71188C14.9359 6.01563 14.4075 6.45664 14 7C13.5925 6.45664 13.0641 6.01563 12.4566 5.71188C11.8491 5.40813 11.1792 5.25 10.5 5.25H2.625C2.39294 5.25 2.17038 5.34219 2.00628 5.50628C1.84219 5.67038 1.75 5.89294 1.75 6.125V21.875C1.75 22.1071 1.84219 22.3296 2.00628 22.4937C2.17038 22.6578 2.39294 22.75 2.625 22.75H10.5C11.1962 22.75 11.8639 23.0266 12.3562 23.5188C12.8484 24.0111 13.125 24.6788 13.125 25.375C13.125 25.6071 13.2172 25.8296 13.3813 25.9937C13.5454 26.1578 13.7679 26.25 14 26.25C14.2321 26.25 14.4546 26.1578 14.6187 25.9937C14.7828 25.8296 14.875 25.6071 14.875 25.375C14.875 24.6788 15.1516 24.0111 15.6438 23.5188C16.1361 23.0266 16.8038 22.75 17.5 22.75H25.375C25.6071 22.75 25.8296 22.6578 25.9937 22.4937C26.1578 22.3296 26.25 22.1071 26.25 21.875V6.125C26.25 5.89294 26.1578 5.67038 25.9937 5.50628C25.8296 5.34219 25.6071 5.25 25.375 5.25ZM10.5 21H3.5V7H10.5C11.1962 7 11.8639 7.27656 12.3562 7.76884C12.8484 8.26113 13.125 8.92881 13.125 9.625V21.875C12.3684 21.3057 11.4469 20.9985 10.5 21ZM24.5 21H17.5C16.5531 20.9985 15.6316 21.3057 14.875 21.875V9.625C14.875 8.92881 15.1516 8.26113 15.6438 7.76884C16.1361 7.27656 16.8038 7 17.5 7H24.5V21Z" fill="white"/>
</svg>
