<svg width="21" height="22" viewBox="0 0 21 22" fill="none" xmlns="http://www.w3.org/2000/svg">
<path d="M19.25 0H1.75C1.28587 0 0.840752 0.184374 0.512563 0.512563C0.184374 0.840752 0 1.28587 0 1.75V7.875C0 13.6413 2.79125 17.1358 5.13297 19.052C7.65516 21.1148 10.1642 21.8148 10.2736 21.8444C10.424 21.8853 10.5826 21.8853 10.733 21.8444C10.8423 21.8148 13.3481 21.1148 15.8736 19.052C18.2088 17.1358 21 13.6413 21 7.875V1.75C21 1.28587 20.8156 0.840752 20.4874 0.512563C20.1592 0.184374 19.7141 0 19.25 0ZM19.25 7.875C19.25 11.9295 17.7559 15.2206 14.8094 17.6553C13.5267 18.7116 12.0679 19.5335 10.5 20.0834C8.95257 19.5431 7.51182 18.7357 6.24313 17.698C3.26156 15.2589 1.75 11.9547 1.75 7.875V1.75H19.25V7.875ZM5.50594 11.1191C5.34175 10.9549 5.24951 10.7322 5.24951 10.5C5.24951 10.2678 5.34175 10.0451 5.50594 9.88094C5.67012 9.71675 5.89281 9.62451 6.125 9.62451C6.35719 9.62451 6.57988 9.71675 6.74406 9.88094L8.75 11.888L14.2559 6.38094C14.3372 6.29964 14.4337 6.23515 14.54 6.19116C14.6462 6.14716 14.76 6.12451 14.875 6.12451C14.99 6.12451 15.1038 6.14716 15.21 6.19116C15.3163 6.23515 15.4128 6.29964 15.4941 6.38094C15.5754 6.46223 15.6398 6.55875 15.6838 6.66497C15.7278 6.77119 15.7505 6.88503 15.7505 7C15.7505 7.11497 15.7278 7.22882 15.6838 7.33503C15.6398 7.44125 15.5754 7.53777 15.4941 7.61906L9.36906 13.7441C9.2878 13.8254 9.1913 13.89 9.08507 13.934C8.97885 13.978 8.86499 14.0007 8.75 14.0007C8.63501 14.0007 8.52115 13.978 8.41493 13.934C8.3087 13.89 8.2122 13.8254 8.13094 13.7441L5.50594 11.1191Z" fill="white"/>
</svg>
