<svg width="28" height="28" viewBox="0 0 28 28" fill="none" xmlns="http://www.w3.org/2000/svg">
<g clip-path="url(#clip0_2283_46010)">
<path d="M12.8254 17.2725C13.9982 16.4917 14.8885 15.3543 15.3648 14.0285C15.8411 12.7026 15.8781 11.2586 15.4702 9.91012C15.0624 8.56161 14.2314 7.38013 13.1002 6.54041C11.969 5.7007 10.5975 5.24731 9.18871 5.24731C7.77988 5.24731 6.40845 5.7007 5.27721 6.54041C4.14598 7.38013 3.31501 8.56161 2.90719 9.91012C2.49936 11.2586 2.53633 12.7026 3.01263 14.0285C3.48893 15.3543 4.37927 16.4917 5.552 17.2725C3.43066 18.0543 1.61899 19.5011 0.387308 21.397C0.322575 21.4932 0.277611 21.6013 0.255031 21.7151C0.23245 21.8288 0.232703 21.9459 0.255775 22.0596C0.278846 22.1732 0.324276 22.2811 0.389424 22.377C0.454571 22.473 0.538137 22.555 0.635264 22.6183C0.73239 22.6817 0.84114 22.7251 0.955192 22.7461C1.06924 22.767 1.18632 22.7651 1.29962 22.7404C1.41292 22.7157 1.52018 22.6687 1.61517 22.6022C1.71016 22.5357 1.79098 22.451 1.85293 22.3529C2.64742 21.131 3.73457 20.1269 5.01566 19.4317C6.29675 18.7366 7.73119 18.3725 9.18871 18.3725C10.6462 18.3725 12.0807 18.7366 13.3618 19.4317C14.6429 20.1269 15.73 21.131 16.5245 22.3529C16.6528 22.5437 16.8511 22.6763 17.0764 22.722C17.3017 22.7677 17.5359 22.723 17.7285 22.5974C17.921 22.4718 18.0564 22.2755 18.1054 22.0508C18.1544 21.8262 18.1129 21.5913 17.9901 21.397C16.7584 19.5011 14.9468 18.0543 12.8254 17.2725ZM4.37621 11.8125C4.37621 10.8607 4.65846 9.93021 5.18727 9.1388C5.71607 8.34738 6.46768 7.73055 7.34705 7.36631C8.22642 7.00206 9.19405 6.90676 10.1276 7.09245C11.0611 7.27814 11.9186 7.73649 12.5917 8.40953C13.2647 9.08257 13.7231 9.94007 13.9087 10.8736C14.0944 11.8071 13.9991 12.7748 13.6349 13.6541C13.2706 14.5335 12.6538 15.2851 11.8624 15.8139C11.071 16.3427 10.1405 16.625 9.18871 16.625C7.9128 16.6235 6.68957 16.116 5.78736 15.2138C4.88516 14.3116 4.37766 13.0884 4.37621 11.8125ZM27.3603 22.6078C27.1659 22.7345 26.9292 22.7789 26.7021 22.7311C26.4751 22.6833 26.2763 22.5473 26.1495 22.3529C25.356 21.1303 24.2689 20.1257 22.9876 19.4309C21.7062 18.736 20.2713 18.373 18.8137 18.375C18.5816 18.375 18.3591 18.2828 18.195 18.1187C18.0309 17.9546 17.9387 17.732 17.9387 17.5C17.9387 17.2679 18.0309 17.0454 18.195 16.8813C18.3591 16.7172 18.5816 16.625 18.8137 16.625C19.5224 16.6243 20.2223 16.4671 20.8632 16.1646C21.5041 15.8621 22.0703 15.4218 22.5213 14.8752C22.9724 14.3285 23.2971 13.6889 23.4723 13.0022C23.6475 12.3155 23.6689 11.5986 23.5349 10.9026C23.4009 10.2067 23.1149 9.54895 22.6972 8.97638C22.2795 8.40381 21.7406 7.93055 21.1188 7.59042C20.497 7.25029 19.8078 7.05169 19.1004 7.0088C18.393 6.96591 17.6848 7.0798 17.0265 7.34232C16.9192 7.38872 16.8036 7.41314 16.6867 7.41412C16.5698 7.41511 16.4538 7.39265 16.3457 7.34807C16.2376 7.3035 16.1396 7.2377 16.0573 7.15458C15.9751 7.07146 15.9103 6.97269 15.8669 6.86412C15.8235 6.75555 15.8023 6.63938 15.8045 6.52247C15.8067 6.40555 15.8324 6.29027 15.8799 6.18344C15.9274 6.07661 15.9959 5.98038 16.0813 5.90046C16.1666 5.82053 16.2671 5.75853 16.3768 5.7181C17.8834 5.11725 19.5592 5.09563 21.0808 5.65741C22.6024 6.21918 23.862 7.32455 24.6167 8.76028C25.3714 10.196 25.5677 11.8603 25.1676 13.4322C24.7676 15.0041 23.7996 16.3722 22.4504 17.2725C24.5718 18.0543 26.3834 19.5011 27.6151 21.397C27.7419 21.5914 27.7862 21.8281 27.7384 22.0552C27.6906 22.2822 27.5546 22.481 27.3603 22.6078Z" fill="white"/>
</g>
<defs>
<clipPath id="clip0_2283_46010">
<rect width="28" height="28" fill="white"/>
</clipPath>
</defs>
</svg>
